HIERARCHY
ROOT Hips
{
	OFFSET -3.958830 18.904000 13.208200
	CHANNELS 6 Xposition Yposition Zposition Zrotation Yrotation Xrotation 
	JOINT LHipJoint
	{
		OFFSET 0.000000 0.000000 0.000000
		CHANNELS 3 Zrotation Yrotation Xrotation
		JOINT LeftUpLeg
		{
			OFFSET 1.800000 -1.400000 0.085000
			CHANNELS 3 Zrotation Yrotation Xrotation
			JOINT LeftLeg
			{
				OFFSET 2.215000 -6.000000 0.000000
				CHANNELS 3 Zrotation Yrotation Xrotation
				JOINT LeftFoot
				{
					OFFSET 2.500000 -6.900000 0.000000
					CHANNELS 3 Zrotation Yrotation Xrotation
					JOINT LeftToeBase
					{
						OFFSET 0.200000 -0.500000 1.950000
						CHANNELS 3 Zrotation Yrotation Xrotation
						End Site
						{
							OFFSET 0.000000 0.000000 0.000000
						}
					}
				}
			}
		}
	}
	JOINT RHipJoint
	{
		OFFSET 0.000000 0.000000 0.000000
		CHANNELS 3 Zrotation Yrotation Xrotation
		JOINT RightUpLeg
		{
			OFFSET -1.800000 -1.400000 0.085000
			CHANNELS 3 Zrotation Yrotation Xrotation
			JOINT RightLeg
			{
				OFFSET -2.215000 -6.000000 0.000000
				CHANNELS 3 Zrotation Yrotation Xrotation
				JOINT RightFoot
				{
					OFFSET -2.500000 -6.900000 0.000000
					CHANNELS 3 Zrotation Yrotation Xrotation
					JOINT RightToeBase
					{
						OFFSET -0.200000 -0.500000 1.950000
						CHANNELS 3 Zrotation Yrotation Xrotation
						End Site
						{
							OFFSET 0.000000 0.000000 0.000000
						}
					}
				}
			}
		}
	}
	JOINT LowerBack
	{
		OFFSET 0.000000 0.000000 0.000000
		CHANNELS 3 Zrotation Yrotation Xrotation
		JOINT Spine
		{
			OFFSET -0.087000 1.940000 -0.288900
			CHANNELS 3 Zrotation Yrotation Xrotation
			JOINT Spine1
			{
				OFFSET 0.000000 1.950000 0.060000
				CHANNELS 3 Zrotation Yrotation Xrotation
				JOINT Neck
				{
					OFFSET 0.000000 0.000000 0.000000
					CHANNELS 3 Zrotation Yrotation Xrotation
					JOINT Neck1
					{
						OFFSET 0.000000 1.600000 0.340000
						CHANNELS 3 Zrotation Yrotation Xrotation
						JOINT Head
						{
							OFFSET 0.000000 1.667000 -0.240000
							CHANNELS 3 Zrotation Yrotation Xrotation
							End Site
							{
								OFFSET 0.000000 0.000000 0.000000
							}
						}
					}
				}
				JOINT LeftShoulder
				{
					OFFSET 0.000000 0.000000 0.000000
					CHANNELS 3 Zrotation Yrotation Xrotation
					JOINT LeftArm
					{
						OFFSET 2.700000 1.550000 -0.730000
						CHANNELS 3 Zrotation Yrotation Xrotation
						JOINT LeftForeArm
						{
							OFFSET 5.450000 0.000000 0.000000
							CHANNELS 3 Zrotation Yrotation Xrotation
							JOINT LeftHand
							{
								OFFSET 3.450000 0.000000 0.000000
								CHANNELS 3 Zrotation Yrotation Xrotation
								JOINT LeftHandIndex1
								{
									OFFSET 0.750000 0.000000 0.000000
									CHANNELS 3 Zrotation Yrotation Xrotation
									End Site
									{
										OFFSET 0.000000 0.000000 0.000000
									}
								}
							}
						}
					}
				}
				JOINT RightShoulder
				{
					OFFSET 0.000000 0.000000 0.000000
					CHANNELS 3 Zrotation Yrotation Xrotation
					JOINT RightArm
					{
						OFFSET -2.700000 1.550000 -0.730000
						CHANNELS 3 Zrotation Yrotation Xrotation
						JOINT RightForeArm
						{
							OFFSET -5.450000 0.000000 0.000000
							CHANNELS 3 Zrotation Yrotation Xrotation
							JOINT RightHand
							{
								OFFSET -3.450000 0.000000 0.000000
								CHANNELS 3 Zrotation Yrotation Xrotation
								JOINT RightHandIndex1
								{
									OFFSET -0.750000 0.000000 0.000000
									CHANNELS 3 Zrotation Yrotation Xrotation
									End Site
									{
										OFFSET 0.000000 0.000000 0.000000
									}
								}
							}
						}
					}
				}
			}
		}
	}
}
MOTION
Frames: 9
Frame Time: 0.016667
0.929400 17.288080 -3.702590 -2.851745 11.258773 -8.971199 -15.793211 11.671355 7.004887 40.203604 -2.607003 -22.035886 -44.718855 16.915034 13.876890 0.922464 10.681108 0.785248 0.204090 -0.064740 0.291920 18.228643 -9.705550 -0.380417 -29.590023 -5.420345 -6.777994 -11.219657 -5.879032 32.241757 -0.439324 -5.582674 2.451487 0.022160 0.156140 -0.015190 -2.814551 -4.783520 -8.177312 12.646767 -5.542426 15.775304 -6.602411 -1.247997 14.435378 1.835202 -7.844204 -16.095084 -28.289583 19.948728 32.486349 -2.527970 16.839940 -3.935280 -0.481339 -5.722871 11.789454 -57.333007 -27.895200 18.176566 142.696697 -45.068139 -124.483048 -3.795378 2.947731 0.485110 0.081760 -0.098770 0.024260 -3.414254 6.365606 5.307720 45.658750 -5.188140 -9.879900 -16.560107 3.777405 0.216573 2.611661 -1.254327 -0.319460 0.185860 0.027790 -0.311460 
1.129490 17.339470 -3.704040 -2.686249 9.737927 -9.032993 -15.731076 11.836218 6.815415 38.613168 -2.342799 -21.920957 -43.959433 18.120605 16.081779 0.941281 10.705539 0.762518 0.216450 -0.044530 0.306050 18.236367 -9.894503 -0.313951 -26.878260 -4.578458 -10.032842 -12.598438 -5.252104 36.570574 -0.483639 -5.779042 2.384305 0.016710 0.110170 -0.035530 -2.922010 -4.499459 -8.132359 13.116061 -5.006395 16.460728 -6.509253 -0.630894 13.943044 2.139334 -8.056264 -16.279309 -29.273866 20.215421 33.196107 -3.074900 16.788610 -5.102330 -0.638197 -5.574514 11.499947 -56.208291 -26.091151 15.835830 142.781281 -48.529526 -128.153367 -3.763215 2.945800 0.513840 0.042020 -0.069550 0.014190 -3.696505 6.925969 5.765824 46.697143 -5.294727 -10.530841 -16.726741 6.416946 -0.176041 2.561651 -1.243651 -0.307590 0.189120 0.017660 -0.318170 
1.303870 17.382550 -3.729120 -2.135016 9.695089 -8.189469 -15.714283 11.958657 6.630128 36.497771 -2.627936 -23.925844 -42.222806 19.199194 19.223649 0.934229 10.705886 0.740359 0.217490 -0.060000 0.302490 18.218547 -9.890419 -0.110371 -25.423615 -3.887218 -13.796855 -11.571619 -5.997298 41.287733 -0.560070 -6.206858 2.210930 -0.014250 0.084860 -0.009280 -2.907016 -4.486123 -8.170537 12.145490 -4.873736 16.505959 -6.461876 -0.658601 12.974805 2.548122 -8.102344 -16.476094 -29.513567 20.730967 34.061344 -3.312590 17.108890 -5.136120 -0.433752 -5.364344 11.431775 -55.793947 -23.092625 12.907311 144.143057 -53.086044 -134.900718 -3.734219 3.029388 0.541300 0.019010 -0.043220 0.013820 -4.436357 7.319364 5.967108 49.307579 -4.687414 -11.545009 -16.045038 10.018432 -0.702828 2.496105 -1.253390 -0.282910 0.156110 0.021370 -0.318190 
1.463160 17.435400 -3.753690 -1.659395 9.045251 -7.994717 -15.706699 12.059815 6.445209 34.595695 -2.851846 -25.099864 -40.604943 20.116084 22.068203 0.972449 10.707417 0.712764 0.218380 -0.049910 0.311320 18.187716 -9.807714 0.175021 -24.253953 -2.986140 -16.703029 -9.449558 -7.119722 44.641748 -0.628588 -6.547437 2.069037 -0.043500 0.023830 0.000610 -2.859145 -4.512769 -8.269665 11.127993 -4.617644 17.843498 -6.214388 -0.512037 11.993753 3.074356 -8.336491 -16.538145 -30.276556 20.928300 34.255438 -4.579340 17.418700 -6.265120 -0.734281 -4.838041 11.123576 -55.687382 -19.941485 9.586926 147.574570 -58.326669 -144.900911 -3.661746 3.139446 0.550640 -0.024220 0.000010 -0.006530 -4.933357 7.540239 6.128908 51.561021 -4.227281 -12.684698 -14.240022 14.287892 -1.160697 2.447500 -1.241779 -0.236300 0.117930 0.015500 -0.311670 
1.596590 17.492430 -3.779810 -0.850239 8.350683 -7.581574 -15.703404 12.201606 6.160276 32.175904 -3.141648 -26.376439 -37.332232 20.962878 25.932757 0.942460 10.748321 0.696401 0.187900 -0.091930 0.298030 18.146294 -9.689219 0.554149 -23.094523 -1.889043 -19.791466 -7.266414 -8.320896 47.869202 -0.689309 -6.961962 1.924689 -0.067050 0.029380 -0.023110 -2.784986 -4.584942 -8.351286 9.359964 -4.189358 18.660452 -5.537106 -0.348535 10.925490 3.175294 -8.484157 -16.587299 -30.912289 21.288033 34.863865 -4.272530 17.132630 -5.652580 -0.862262 -4.321419 10.988976 -56.532004 -16.610189 5.993902 151.680748 -64.331840 -155.354911 -3.594989 3.200830 0.568950 -0.040120 -0.005310 -0.017430 -4.732080 7.762622 6.183199 53.654776 -3.164268 -13.451012 -12.903884 18.054002 -1.550294 2.388566 -1.219759 -0.256660 0.139300 0.032050 -0.313780 
1.711450 17.542320 -3.794170 -0.141136 7.384105 -7.657842 -15.701193 12.343117 5.892655 30.184794 -3.349045 -26.873139 -33.874450 21.890352 30.345772 0.870631 10.977403 0.584347 0.137540 -0.176070 0.278520 18.098934 -9.621479 0.892510 -21.397697 -0.666103 -21.784763 -5.369775 -9.016352 49.266842 -0.707403 -7.115150 1.865165 -0.104740 0.044650 -0.009690 -2.705117 -4.559048 -8.415224 7.491002 -3.415388 19.708502 -4.491950 0.096167 10.213016 3.061112 -8.582070 -16.544929 -31.453694 21.534102 36.443439 -3.546580 15.920390 -7.079690 -1.554035 -3.999500 10.359831 -56.484132 -13.700025 1.934287 159.878240 -71.440450 -169.745275 -3.545909 3.185614 0.642820 -0.052870 -0.001250 -0.070900 -3.621444 8.300860 6.700160 54.941081 -2.940593 -14.644723 -10.502426 23.738034 -1.816115 2.259727 -1.139042 -0.291030 0.173810 0.112490 -0.335300 
1.827130 17.575620 -3.829760 -0.341607 6.652003 -7.771779 -15.642830 12.366393 5.589553 28.644277 -3.489355 -27.996418 -28.588356 22.097225 35.507744 0.793925 11.128813 0.524739 0.130960 -0.203240 0.307740 18.133246 -9.519159 1.323906 -19.081289 0.792603 -24.114996 -2.731092 -10.234833 51.206372 -0.781267 -7.447035 1.754999 -0.107340 0.038760 -0.024330 -2.824412 -4.336891 -8.485348 7.450153 -3.373207 21.287747 -4.368213 0.061570 9.194112 2.884184 -8.980997 -15.953484 -31.517539 20.771737 37.037301 -4.427330 14.922260 -8.282580 -2.543058 -3.167585 9.304146 -55.377488 -11.060040 -1.949285 -176.451458 -76.995562 160.588553 -3.461989 3.048428 0.674660 -0.068890 0.002700 -0.090270 -2.303617 8.232783 6.736226 55.887569 -1.848435 -15.249775 -6.982160 28.983033 -1.758205 2.183626 -1.116711 -0.318920 0.209460 0.123790 -0.352070 
1.949900 17.590760 -3.863960 -0.600680 6.217098 -7.835316 -15.555510 12.475066 5.093308 26.075364 -3.701105 -28.629969 -21.520461 20.970822 40.902972 0.660009 11.016507 0.530831 0.154930 -0.191840 0.327560 18.179019 -9.436341 1.856307 -17.510210 2.299872 -26.435343 0.808175 -12.042140 52.782992 -0.901265 -7.884568 1.596110 -0.089150 0.009470 -0.031980 -3.000628 -4.117621 -8.504930 7.823316 -3.423557 22.636860 -4.390196 -0.036290 8.271849 2.711849 -9.342641 -15.595107 -31.925233 20.725248 37.695580 -4.170320 13.851810 -9.644140 -3.731500 -2.801412 8.470662 -54.992557 -8.488108 -5.660488 -139.773054 -78.371521 118.010507 -3.464172 2.581818 0.718780 -0.108670 0.023610 -0.093300 -0.766050 8.458076 6.878526 56.828849 -1.072694 -16.064637 -3.356767 34.168178 -1.474260 2.125678 -1.128009 -0.331090 0.224430 0.122550 -0.364090 
2.061660 17.596660 -3.903820 -0.340722 5.898284 -7.869168 -15.542703 12.670099 4.589519 23.327293 -3.753156 -29.119822 -14.777099 18.955123 44.953285 0.519797 10.657057 0.608071 0.175800 -0.171770 0.346530 18.155668 -9.283258 2.402910 -16.695373 3.881434 -28.585179 4.604721 -13.955590 53.973097 -1.025701 -8.361321 1.437319 -0.079910 -0.028540 -0.040290 -2.969319 -4.145925 -8.537171 6.458396 -2.738802 24.082188 -2.960070 0.336361 7.355507 2.421589 -9.565566 -15.247739 -32.195692 20.721612 38.923962 -3.596360 12.723070 -10.626540 -5.015550 -2.681871 7.647769 -55.342834 -6.589286 -5.602387 -102.454135 -77.390865 72.439324 -4.026630 1.962105 0.741970 -0.143970 0.041090 -0.113460 1.246430 9.184726 7.227660 56.670187 -0.857804 -16.749357 0.864581 38.659661 -0.806714 2.101848 -1.130401 -0.320680 0.221310 0.122930 -0.370100 
